<?xml version="1.0" encoding="UTF-8" standalone="no"?>
<!-- Created with Inkscape (http://www.inkscape.org/) -->

<svg
   xmlns:dc="http://purl.org/dc/elements/1.1/"
   xmlns:cc="http://creativecommons.org/ns#"
   xmlns:rdf="http://www.w3.org/1999/02/22-rdf-syntax-ns#"
   xmlns:svg="http://www.w3.org/2000/svg"
   xmlns="http://www.w3.org/2000/svg"
   xmlns:xlink="http://www.w3.org/1999/xlink"
   xmlns:sodipodi="http://sodipodi.sourceforge.net/DTD/sodipodi-0.dtd"
   xmlns:inkscape="http://www.inkscape.org/namespaces/inkscape"
   width="329.15646"
   height="198.48631"
   id="svg2984"
   version="1.1"
   inkscape:version="0.48.4 r9939"
   sodipodi:docname="logo-white.svg"
   inkscape:export-filename="/home/vojta/web/rodokmen/doc/logo-white.png"
   inkscape:export-xdpi="136.71001"
   inkscape:export-ydpi="136.71001">
  <defs
     id="defs2986">
    <linearGradient
       id="linearGradient3988">
      <stop
         style="stop-color:#000000;stop-opacity:0;"
         offset="0"
         id="stop3990" />
      <stop
         id="stop3998"
         offset="0"
         style="stop-color:#000000;stop-opacity:0;" />
      <stop
         style="stop-color:#000000;stop-opacity:1;"
         offset="0.80074584"
         id="stop4000" />
      <stop
         style="stop-color:#000000;stop-opacity:1;"
         offset="1"
         id="stop3992" />
    </linearGradient>
    <linearGradient
       inkscape:collect="always"
       xlink:href="#linearGradient4002-9"
       id="linearGradient4008-4"
       x1="-100.96285"
       y1="693.63416"
       x2="-164.82822"
       y2="694.4574"
       gradientUnits="userSpaceOnUse"
       gradientTransform="translate(0,3)" />
    <linearGradient
       inkscape:collect="always"
       id="linearGradient4002-9">
      <stop
         style="stop-color:#000000;stop-opacity:1;"
         offset="0"
         id="stop4004-9" />
      <stop
         style="stop-color:#000000;stop-opacity:0;"
         offset="1"
         id="stop4006-8" />
    </linearGradient>
  </defs>
  <sodipodi:namedview
     id="base"
     pagecolor="#ffffff"
     bordercolor="#ffffff"
     borderopacity="0.0"
     inkscape:pageopacity="0.0"
     inkscape:pageshadow="0"
     inkscape:zoom="1.4142136"
     inkscape:cx="144.33632"
     inkscape:cy="79.88532"
     inkscape:document-units="px"
     inkscape:current-layer="layer2"
     showgrid="false"
     inkscape:window-width="1339"
     inkscape:window-height="768"
     inkscape:window-x="27"
     inkscape:window-y="0"
     inkscape:window-maximized="1"
     inkscape:object-paths="false"
     fit-margin-top="0"
     fit-margin-left="0"
     fit-margin-right="0"
     fit-margin-bottom="0" />
  <metadata
     id="metadata2989">
    <rdf:RDF>
      <cc:Work
         rdf:about="">
        <dc:format>image/svg+xml</dc:format>
        <dc:type
           rdf:resource="http://purl.org/dc/dcmitype/StillImage" />
        <dc:title></dc:title>
      </cc:Work>
    </rdf:RDF>
  </metadata>
  <g
     inkscape:groupmode="layer"
     id="layer2"
     inkscape:label="Bg"
     style="display:inline">
    <rect
       style="fill:#000000;fill-opacity:1;fill-rule:nonzero;stroke:#ffffff;stroke-width:13.27840042;stroke-linecap:round;stroke-linejoin:miter;stroke-miterlimit:4;stroke-opacity:1;stroke-dasharray:none;stroke-dashoffset:0;display:inline"
       id="rect2999"
       width="682.07941"
       height="398.52982"
       x="-178.823"
       y="-88.459801"
       rx="0"
       ry="6.9957957"
       sodipodi:insensitive="true" />
  </g>
  <g
     inkscape:label="Layer 1"
     inkscape:groupmode="layer"
     id="layer1"
     transform="translate(89.03125,-630.43012)"
     style="display:inline;opacity:0.02">
    <g
       transform="translate(49.239838,-20.446057)"
       style="font-size:16px;font-style:normal;font-variant:normal;font-weight:normal;font-stretch:normal;line-height:125%;letter-spacing:0px;word-spacing:0px;fill:#ffffff;fill-opacity:1;stroke:none;font-family:DejaVu Sans;-inkscape-font-specification:DejaVu Sans"
       id="flowRoot2992"
       inkscape:export-xdpi="136"
       inkscape:export-ydpi="136">
      <path
         inkscape:connector-curvature="0"
         d="m 95.591797,660.9836 c -16.601628,1.8e-4 -24.902401,6.39666 -24.902344,19.18945 l 0,68.70117 14.355469,0 c 16.210848,10e-5 28.662008,-3.27138 37.353518,-9.81445 8.69129,-6.64051 13.03699,-18.65222 13.03711,-36.03516 -1.2e-4,-28.02717 -13.28136,-42.04083 -39.843753,-42.04101 M 70.689453,809.81172 c -5.7e-5,12.01175 1.562442,19.48244 4.6875,22.41211 3.124936,2.83204 10.253835,4.4922 21.386719,4.98047 0.781166,0.97657 1.171791,2.68555 1.171875,5.12695 -8.4e-5,2.34376 -0.390709,3.90625 -1.171875,4.6875 -20.019594,-0.39062 -32.910206,-0.58593 -38.671875,-0.58593 -6.44535,0 -19.433619,0.19531 -38.964844,0.58593 -0.976567,-0.78125 -1.464847,-2.34374 -1.464844,-4.6875 -3e-6,-2.4414 0.488277,-4.15038 1.464844,-5.12695 11.230453,-0.39062 18.359352,-2.05077 21.386719,-4.98047 3.12497,-2.92967 4.687469,-10.40036 4.6875,-22.41211 l 0,-120.26367 c -3.1e-5,-12.01155 -1.56253,-19.43342 -4.6875,-22.26562 -3.027367,-2.92951 -10.156266,-4.58966 -21.386719,-4.98047 -0.976567,-0.78107 -1.464847,-2.3924 -1.464844,-4.83399 -3e-6,-2.44121 0.488277,-4.1502 1.464844,-5.12695 20.019506,0.39082 32.910118,0.58613 38.671875,0.58594 4.199171,1.9e-4 10.937445,-0.34161 20.214844,-1.02539 9.27727,-0.6834 15.038983,-1.0252 17.285156,-1.02539 11.816312,1.9e-4 21.826072,0.92792 30.029302,2.7832 8.203,1.758 15.47838,5.61542 21.82617,11.57226 10.64438,9.96111 15.96664,22.4611 15.96679,37.5 -1.5e-4,13.76967 -4.34584,25.00012 -13.03711,33.69141 -8.69153,8.69151 -17.6759,14.55088 -26.95312,17.57813 l 37.93945,62.98828 c 4.58969,7.61721 8.98422,13.37892 13.1836,17.28515 4.19905,3.90626 9.37483,5.85938 15.52734,5.85938 1.36701,2.63672 1.46467,5.0293 0.29297,7.17773 -2.83221,1.36719 -7.03142,2.05078 -12.59766,2.05078 -15.42983,0 -28.61341,-8.88671 -39.55078,-26.66015 L 105.8457,770.55391 c -2.44149,-4.00383 -6.005942,-6.88468 -10.693356,-8.64258 -4.687577,-1.85538 -12.841865,-2.78311 -24.462891,-2.7832 l 0,50.68359"
         style="font-size:300px;fill:#ffffff;fill-opacity:1;font-family:Linux Libertine Capitals;-inkscape-font-specification:Linux Libertine Capitals"
         id="path3001" />
    </g>
    <path
       style="font-size:medium;font-style:normal;font-variant:normal;font-weight:normal;font-stretch:normal;text-indent:0;text-align:start;text-decoration:none;line-height:normal;letter-spacing:normal;word-spacing:normal;text-transform:none;direction:ltr;block-progression:tb;writing-mode:lr-tb;text-anchor:start;baseline-shift:baseline;color:#000000;fill:#ffffff;fill-opacity:1;stroke:none;stroke-width:15;marker:none;visibility:visible;display:inline;overflow:visible;enable-background:accumulate;font-family:Sans;-inkscape-font-specification:Sans"
       d="m 59.114838,726.80394 0,15 44.999992,-1.06066 0,-12.87868 z"
       id="path3868-9"
       inkscape:connector-curvature="0"
       sodipodi:nodetypes="ccccc"
       inkscape:export-filename="/home/vojta/web/rodokmen/doc/flowRoot2992.png"
       inkscape:export-xdpi="136"
       inkscape:export-ydpi="136" />
    <path
       style="fill:none;stroke:#ffffff;stroke-width:13;stroke-linecap:butt;stroke-linejoin:miter;stroke-miterlimit:4;stroke-opacity:1;stroke-dasharray:none"
       d="m -1.5774029,788.40546 21.0492609,0 c 27.30763,0.01 44.54923,-10.1349 44.04923,-53.24482 -0.5,-43.10993 -17.80226,-53.25028 -44.01018,-53.25128 l -21.0102109,-10e-4"
       id="path3868-2"
       inkscape:connector-curvature="0"
       sodipodi:nodetypes="cczcc"
       inkscape:export-filename="/home/vojta/web/rodokmen/doc/flowRoot2992.png"
       inkscape:export-xdpi="136"
       inkscape:export-ydpi="136" />
    <path
       style="fill:none;stroke:#ffffff;stroke-width:13;stroke-linecap:butt;stroke-linejoin:miter;stroke-miterlimit:4;stroke-opacity:1;stroke-dasharray:none"
       d="m -88.959412,710.00283 c 0,0 29.3495,0.3006 52.549254,-1.28789 23.199758,-1.58849 29.6956751,-11.92347 30.0492291,-26.89126 0.353554,-14.96779 -6.1332471,-29.12946 -24.0101791,-30.89773 -17.876932,-1.76827 -30.510204,-1.06166 -30.510204,-1.06166"
       id="path3868-2-6"
       inkscape:connector-curvature="0"
       sodipodi:nodetypes="czzzc"
       inkscape:export-filename="/home/vojta/web/rodokmen/doc/flowRoot2992.png"
       inkscape:export-xdpi="136"
       inkscape:export-ydpi="136" />
    <path
       style="fill:none;stroke:#ffffff;stroke-width:13;stroke-linecap:butt;stroke-linejoin:miter;stroke-miterlimit:4;stroke-opacity:1;stroke-dasharray:none"
       d="m -63.311142,820.09336 c 0,0 10.359906,-0.1743 31.08479,-0.3486 20.724883,-0.1743 26.1601411,-16.6306 26.5136951,-31.5983 0.353554,-14.96784 -6.4763931,-30.54372 -27.8888591,-31.95844 -21.412465,-1.41471 -50.131526,-0.7081 -50.131526,-0.7081"
       id="path3868-2-6-3"
       inkscape:connector-curvature="0"
       sodipodi:nodetypes="czzzc"
       inkscape:export-filename="/home/vojta/web/rodokmen/doc/flowRoot2992.png"
       inkscape:export-xdpi="136"
       inkscape:export-ydpi="136" />
  </g>
</svg>
