<?xml version="1.0" encoding="UTF-8" standalone="no"?>
<!-- Created with Inkscape (http://www.inkscape.org/) -->
<svg xmlns:rdf="http://www.w3.org/1999/02/22-rdf-syntax-ns#" xmlns="http://www.w3.org/2000/svg" version="1.1" xmlns:cc="http://creativecommons.org/ns#" xmlns:xlink="http://www.w3.org/1999/xlink" viewBox="0 0 329.16 198.49" xmlns:dc="http://purl.org/dc/elements/1.1/">
<defs></defs>
<metadata>
<rdf:RDF>
<cc:Work rdf:about="">
<dc:format>image/svg+xml</dc:format>
<dc:type rdf:resource="http://purl.org/dc/dcmitype/StillImage"/>
<dc:title/>
</cc:Work>
</rdf:RDF>
</metadata>
<g display="none">
<rect stroke-linejoin="miter" stroke-dasharray="none" fill-rule="nonzero" stroke-dashoffset="0" rx="0" ry="6.9958" height="398.53" width="682.08" stroke="#ffffff" stroke-linecap="round" stroke-miterlimit="4" y="-88.46" x="-178.82" stroke-width="13.278" fill="#000000"/>
</g>
<g opacity="0.02" transform="translate(89.03125,-630.43012)">
<g style="letter-spacing:0px;word-spacing:0px;" font-weight="normal" transform="translate(49.239838,-20.446057)" font-style="normal" font-stretch="normal" line-height="125%" font-size="16px" font-variant="normal" font-family="DejaVu Sans" fill="#ffffff">
<path fill="#ffffff" d="m95.592,660.98c-16.602,0.00018-24.902,6.3967-24.902,19.189v68.701h14.355c16.211,0.0001,28.662-3.2714,37.354-9.8144,8.6913-6.6405,13.037-18.652,13.037-36.035-0.00012-28.027-13.281-42.041-39.844-42.041m-24.907,148.83c-0.000057,12.012,1.5624,19.482,4.6875,22.412,3.1249,2.832,10.254,4.4922,21.387,4.9805,0.78117,0.97657,1.1718,2.6856,1.1719,5.127-0.000084,2.3438-0.39071,3.9062-1.1719,4.6875-20.02-0.39062-32.91-0.58593-38.672-0.58593-6.4454,0-19.434,0.19531-38.965,0.58593-0.97657-0.78125-1.4648-2.3437-1.4648-4.6875-0.000003-2.4414,0.48828-4.1504,1.4648-5.127,11.23-0.39062,18.359-2.0508,21.387-4.9805,3.125-2.9297,4.6875-10.4,4.6875-22.412v-120.26c-0.000031-12.012-1.5625-19.433-4.6875-22.266-3.0274-2.9295-10.156-4.5897-21.387-4.9805-0.97657-0.78107-1.4648-2.3924-1.4648-4.834-0.000003-2.4412,0.48828-4.1502,1.4648-5.127,20.02,0.39082,32.91,0.58613,38.672,0.58594,4.1992,0.00019,10.937-0.34161,20.215-1.0254,9.2773-0.6834,15.039-1.0252,17.285-1.0254,11.816,0.00019,21.826,0.92792,30.029,2.7832,8.203,1.758,15.478,5.6154,21.826,11.572,10.644,9.9611,15.967,22.461,15.967,37.5-0.00015,13.77-4.3458,25-13.037,33.691-8.6915,8.6915-17.676,14.551-26.953,17.578l37.939,62.988c4.5897,7.6172,8.9842,13.379,13.184,17.285,4.199,3.9063,9.3748,5.8594,15.527,5.8594,1.367,2.6367,1.4647,5.0293,0.29297,7.1777-2.8322,1.3672-7.0314,2.0508-12.598,2.0508-15.43,0-28.613-8.8867-39.551-26.66l-32.08-52.14c-2.4415-4.0038-6.0059-6.8847-10.693-8.6426-4.6876-1.8554-12.842-2.7831-24.463-2.7832v50.684"/>
</g>
<path style="baseline-shift:baseline;block-progression:tb;color:#000000;direction:ltr;text-indent:0;text-align:start;enable-background:accumulate;text-transform:none;" d="m59.115,726.8,0,15,45-1.0607,0-12.879z" fill="#ffffff"/>
<path stroke-linejoin="miter" d="m-1.5774,788.41,21.049,0c27.308,0.01,44.549-10.135,44.049-53.245s-17.802-53.25-44.01-53.251l-21.01-0.001" stroke="#ffffff" stroke-linecap="butt" stroke-miterlimit="4" stroke-dasharray="none" stroke-width="13" fill="none"/>
<path stroke-linejoin="miter" d="m-88.959,710s29.35,0.3006,52.549-1.2879c23.2-1.5885,29.696-11.923,30.049-26.891,0.35355-14.968-6.1332-29.129-24.01-30.898-17.877-1.7683-30.51-1.0617-30.51-1.0617" stroke="#ffffff" stroke-linecap="butt" stroke-miterlimit="4" stroke-dasharray="none" stroke-width="13" fill="none"/>
<path stroke-linejoin="miter" d="m-63.311,820.09s10.36-0.1743,31.085-0.3486,26.16-16.631,26.514-31.598c0.35355-14.968-6.4764-30.544-27.889-31.958-21.412-1.4147-50.132-0.7081-50.132-0.7081" stroke="#ffffff" stroke-linecap="butt" stroke-miterlimit="4" stroke-dasharray="none" stroke-width="13" fill="none"/>
</g>
</svg>
